<?xml version="1.0" encoding="UTF-8" standalone="no"?>
<svg
   xmlns:dc="http://purl.org/dc/elements/1.1/"
   xmlns:cc="http://creativecommons.org/ns#"
   xmlns:rdf="http://www.w3.org/1999/02/22-rdf-syntax-ns#"
   xmlns:svg="http://www.w3.org/2000/svg"
   xmlns="http://www.w3.org/2000/svg"
   xmlns:sodipodi="http://sodipodi.sourceforge.net/DTD/sodipodi-0.dtd"
   xmlns:inkscape="http://www.inkscape.org/namespaces/inkscape"
   id="svg3103"
   version="1.1"
   inkscape:version="1.0 (4035a4fb49, 2020-05-01)"
   width="270"
   height="270"
   xml:space="preserve"
   sodipodi:docname="Logo_of_GlamBot.svg"
   inkscape:export-filename="/home/oleg/Downloads/Logo_of_GlamBot.svg.png"
   inkscape:export-xdpi="300.05646"
   inkscape:export-ydpi="300.05646"><metadata
     id="metadata3109"><rdf:RDF><cc:Work
         rdf:about=""><dc:format>image/svg+xml</dc:format><dc:type
           rdf:resource="http://purl.org/dc/dcmitype/StillImage" /><dc:title /></cc:Work></rdf:RDF></metadata><defs
     id="defs3107" /><sodipodi:namedview
     pagecolor="#ffffff"
     bordercolor="#666666"
     borderopacity="1"
     objecttolerance="10"
     gridtolerance="10"
     guidetolerance="10"
     inkscape:pageopacity="0"
     inkscape:pageshadow="2"
     inkscape:window-width="1920"
     inkscape:window-height="1016"
     id="namedview3105"
     showgrid="false"
     showguides="false"
     inkscape:guide-bbox="true"
     inkscape:zoom="1.9477033"
     inkscape:cx="196.68231"
     inkscape:cy="179.21609"
     inkscape:current-layer="g3111"
     inkscape:window-x="0"
     inkscape:window-y="0"
     inkscape:window-maximized="1"
     inkscape:snap-text-baseline="true"
     inkscape:document-rotation="0" /><g
     id="g3111"
     inkscape:groupmode="layer"
     inkscape:label="ink_ext_XXXXXX"
     transform="matrix(1.25,0,0,-1.25,0,270)"><path
       d="m 212.64255,106.68258 c 0,56.87117 -46.10122,102.97351 -102.97351,102.97351 -56.869131,0 -102.9731625,-46.10234 -102.9731625,-102.97351 0,-56.870157 46.1040315,-102.9733991 102.9731625,-102.9733991 56.87229,0 102.97351,46.1032421 102.97351,102.9733991"
       style="fill:#b8a321;fill-opacity:1;fill-rule:nonzero;stroke:none;stroke-width:1.12739"
       id="path842"
       inkscape:connector-curvature="0" /><path
       inkscape:connector-curvature="0"
       id="path3139"
       style="fill:#ffffff;fill-opacity:1;fill-rule:nonzero;stroke:none"
       d="m 201.00706,106.68259 c 0,50.445 -40.892,91.338 -91.338,91.338 -50.443197,0 -91.337697,-40.893 -91.337697,-91.338 0,-50.44411 40.8945,-91.33791 91.337697,-91.33791 50.446,0 91.338,40.8938 91.338,91.33791" /><path
       id="path3957"
       style="fill:#b8a321;fill-opacity:1;fill-rule:evenodd;stroke:none;stroke-width:0.0620591"
       d="m 126.98212,103.79539 c 0.007,0.0933 0.0121,0.18668 0.0182,0.27877 -6.30576,2.08606 -12.60743,4.18415 -18.92609,6.229 -0.45937,0.14906 -1.0717,-0.001 -1.56551,-0.16005 -3.35193,-1.07871 -6.693435,-2.19143 -10.034201,-3.30415 -2.753376,-0.91755 -5.501663,-1.84961 -8.252122,-2.77448 0.01961,-0.0897 0.03922,-0.17935 0.05939,-0.26909 12.900283,0 25.800063,0 38.700353,0 z M 79.269845,63.270329 c 18.929958,0 37.724665,0 56.627245,0 0,8.733117 0,17.390856 0,26.202006 -3.62226,0 -7.17682,0 -11.10764,0 0,3.155084 -5e-4,6.166874 0.003,9.177734 0,0.0958 0.0126,0.23515 0.0739,0.28119 1.50711,1.128491 0.44416,2.586631 0.73454,3.881121 -12.11195,0 -23.99335,0 -35.875922,0 0,-1.21326 -0.430069,-2.65812 0.10277,-3.290811 0.761403,-0.905445 0.566041,-1.69937 0.578887,-2.567204 0.01961,-1.389069 -0.06448,-2.779068 -0.08583,-4.168633 -0.01651,-1.06301 -0.0034,-2.126765 -0.0034,-3.330587 -3.871184,0 -7.423322,0 -11.047709,0 0,-8.764606 0,-17.382876 0,-26.184816 z m 46.557915,52.513891 c 0.0441,0.96117 0.11636,1.84117 0.11878,2.71992 0.0121,4.66511 -0.0202,9.33071 0.0126,13.99631 0.0928,13.05972 9.65261,23.92378 22.60434,25.71915 12.61723,1.74883 24.74668,-6.14199 28.41996,-18.48926 1.03204,-3.47035 1.46335,-9.73707 0.90544,-13.53323 -2.47988,0 -4.98086,0 -7.71829,0 0,2.06905 0.001,4.13562 -6.2e-4,6.20343 -0.002,4.00405 -1.2176,7.6072 -3.57336,10.83489 -4.46639,6.12027 -12.69233,8.83039 -19.90173,6.55531 -7.58424,-2.39424 -12.80261,-9.22757 -12.87099,-16.98123 -0.048,-5.40969 0.0514,-10.81938 -0.008,-16.22777 -0.0133,-1.21692 0.40804,-1.52113 1.52243,-1.54174 1.77961,-0.0339 3.55574,-0.2182 5.46282,-0.34666 0,-18.421128 0,-36.799369 0,-55.340733 -0.62308,-0.07394 -1.28835,-0.184235 -1.95735,-0.229085 -10.10167,-0.660104 -20.19843,-1.430266 -30.30847,-1.906376 -3.74608,-0.176723 -7.52709,0.311508 -11.288921,0.548108 -6.933675,0.434897 -13.862449,0.948827 -20.799017,1.330391 -1.479965,0.08145 -1.881167,0.538171 -1.876319,2.024436 0.056,17.271107 0.0526,34.543393 0.0044,51.814509 -0.0041,1.39509 0.342294,1.8254 1.774262,1.91632 12.232889,0.77332 24.456105,1.73815 36.729775,1.37206 3.669,-0.1091 7.33508,-0.29329 11.0029,-0.43515 0.53327,-0.0218 1.0671,-0.004 1.74541,-0.004"
       inkscape:connector-curvature="0" /><g
       style="fill:#b8a321;fill-opacity:1"
       id="g911"
       transform="translate(14.096148,-1.6344661)"><path
         inkscape:connector-curvature="0"
         d="m 78.409982,106.43229 c 0.01092,-0.0909 0.02184,-0.18065 0.03295,-0.27151 10.021364,0 20.04217,0 30.468598,0 -0.55512,0.28479 -0.74421,0.41574 -0.95317,0.48363 -4.62048,1.51027 -9.241716,3.01806 -13.868283,4.51015 -0.31464,0.10183 -0.707101,0.19033 -1.001882,0.0946 -4.89882,-1.58784 -9.787401,-3.20479 -14.678216,-4.81684"
         style="fill:#b8a321;fill-opacity:1;fill-rule:evenodd;stroke:none;stroke-width:0.0620591"
         id="path3959" /><path
         inkscape:connector-curvature="0"
         d="m 69.354692,74.196444 c 0,0.560207 0,0.987856 0,1.445294 0.560952,0.06888 1.044827,0.129703 1.592684,0.197348 0.08508,0.455513 0.164147,0.878756 0.259656,1.38882 0.456941,0.06957 0.935727,0.142302 1.516289,0.231481 0.09892,0.419643 0.206781,0.876336 0.336981,1.429282 13.604035,0 27.212168,0 40.889928,0 0.08,-0.454272 0.15515,-0.878756 0.2424,-1.375912 0.52726,-0.09433 1.04309,-0.185494 1.61888,-0.287271 0.0865,-0.4364 0.17091,-0.860139 0.2671,-1.346682 0.49455,-0.0795 0.97042,-0.156327 1.62011,-0.261269 0.0194,-0.429325 0.0393,-0.876833 0.0642,-1.421091 -16.18941,0 -32.230446,0 -48.408258,0"
         style="fill:#b8a321;fill-opacity:1;fill-rule:evenodd;stroke:none;stroke-width:0.0620591"
         id="path3961" /><path
         inkscape:connector-curvature="0"
         d="m 76.310647,101.66392 c 0,0.70543 0,1.3236 0,2.04839 11.465665,0 22.851584,0 34.326933,0 0,-0.6739 0,-1.29692 0,-2.04839 -11.382756,0 -22.763587,0 -34.326933,0"
         style="fill:#b8a321;fill-opacity:1;fill-rule:evenodd;stroke:none;stroke-width:0.0620591"
         id="path3963" /><path
         inkscape:connector-curvature="0"
         d="m 110.25213,79.874106 c -0.95391,0 -1.81498,0 -2.62591,0 0,6.947515 0,13.820063 0,20.622544 2.1151,0.6376 2.29569,0.5285 2.33696,-1.369642 0.12846,-5.953577 0.24166,-11.90883 0.35392,-17.862592 0.008,-0.433918 -0.0395,-0.868828 -0.065,-1.39031"
         style="fill:#b8a321;fill-opacity:1;fill-rule:evenodd;stroke:none;stroke-width:0.0620591"
         id="path3965" /><path
         inkscape:connector-curvature="0"
         d="m 97.379212,79.902032 c 0,6.923437 0,13.792137 0,20.582518 2.041682,0.63027 2.202353,0.51757 2.23754,-1.301813 0.109534,-5.70019 0.221799,-11.399697 0.328975,-17.099948 0.01328,-0.687491 0.0019,-1.374485 0.0019,-2.180757 -0.940567,0 -1.791025,0 -2.568439,0"
         style="fill:#b8a321;fill-opacity:1;fill-rule:evenodd;stroke:none;stroke-width:0.0620591"
         id="path3967" /><path
         inkscape:connector-curvature="0"
         d="m 79.238781,100.57547 c 0,-6.863863 0,-13.730825 0,-20.695034 -0.703688,0 -1.475579,0 -2.496141,0 0,0.507643 -0.0085,1.026395 0.0014,1.545147 0.112513,5.945323 0.265737,11.889405 0.315136,17.833548 0.01241,1.466579 0.513229,1.877539 2.179577,1.316339"
         style="fill:#b8a321;fill-opacity:1;fill-rule:evenodd;stroke:none;stroke-width:0.0620591"
         id="path3969" /><path
         inkscape:connector-curvature="0"
         d="m 89.402695,79.838732 c -0.710515,0 -1.49066,0 -2.398522,0 -0.02836,0.477793 -0.08241,0.905442 -0.07515,1.333774 0.101591,6.036984 0.249478,12.074899 0.291678,18.113249 0.01067,1.506675 0.595147,1.814545 2.181998,1.318755 0,-6.811667 0,-13.708977 0,-20.765778"
         style="fill:#b8a321;fill-opacity:1;fill-rule:evenodd;stroke:none;stroke-width:0.0620591"
         id="path3971" /><path
         inkscape:connector-curvature="0"
         d="m 78.409982,106.43229 c 4.890815,1.61205 9.779396,3.229 14.678216,4.81684 0.294781,0.0958 0.687242,0.007 1.001882,-0.0946 4.626567,-1.49209 9.2478,-2.99988 13.86828,-4.51015 0.20896,-0.0679 0.39805,-0.19884 0.95317,-0.48363 -10.426425,0 -20.447231,0 -30.468595,0 -0.01111,0.0909 -0.02203,0.1806 -0.03295,0.27151"
         style="fill:#b8a321;fill-opacity:1;fill-rule:evenodd;stroke:none;stroke-width:0.0620591"
         id="path3973" /></g><circle
       style="opacity:1;fill:#b8a321;stroke:#000000;stroke-width:0.645556;stroke-dasharray:1.93667, 1.93666999999999989;fill-opacity:1"
       id="path892"
       cx="66.75975"
       cy="-135.2393"
       r="16.696157"
       transform="scale(1,-1)" /></g></svg>
